<svg width="60" height="59" viewBox="0 0 60 59" fill="none" xmlns="http://www.w3.org/2000/svg">
<path d="M58.4582 0.545435C58.7183 0.805925 58.8961 1.13709 58.9696 1.49778C59.0431 1.85848 59.0089 2.23281 58.8715 2.57429L37.0087 57.2293C36.8161 57.7106 36.4943 58.1295 36.079 58.4397C35.6636 58.75 35.1707 58.9397 34.6544 58.9878C34.1382 59.036 33.6187 58.9408 33.1531 58.7127C32.6875 58.4847 32.2939 58.1326 32.0155 57.6952L20.0753 38.9283L1.30844 26.9881C0.870046 26.7101 0.517002 26.3163 0.288262 25.8502C0.0595209 25.3842 -0.0360243 24.864 0.012169 24.3471C0.0603623 23.8302 0.250421 23.3366 0.561372 22.9209C0.872323 22.5052 1.29208 22.1834 1.77432 21.9912L56.4293 0.135908C56.7708 -0.00155746 57.1452 -0.0356712 57.5058 0.037804C57.8665 0.111279 58.1977 0.289105 58.4582 0.549192V0.545435ZM23.8249 37.8312L34.1984 54.1297L51.9809 9.67527L23.8249 37.8312ZM49.3246 7.01898L4.8702 24.8015L21.1724 35.1712L49.3284 7.01898H49.3246Z" fill="white"/>
</svg>
